PathFileType	4	(X/Y/Z)	 s03c0301.trc
DataRate	CameraRate	NumFrames	NumMarkers	Units	OrigDataRate	OrigDataStartFrame	OrigNumFrames
200	200	6	52	mm	200	751	2000
Frame#	Time	racr			lacr			c7			jug			rlel			rdr			llel			ldr			s2			lic			ric			lasi			rasi			rpsi			lpsi			rgt			lgt			rth1			rth2			rth3			rth4			rlfc			rmfc			rsh1			rsh2			rsh3			rsh4			rlmal			rmmal			rcal			rtoe			rmt5			rmt1			lth1			lth2			lth4			lth3			llfc			lmfc			lsh1			lsh2			lsh3			lsh4			llmal			lmmal			lcal			ltoe			lmt1			lmt5			SBIKE			LBIKE			RBIKE			
		X1	Y1	Z1	X2	Y2	Z2	X3	Y3	Z3	X4	Y4	Z4	X5	Y5	Z5	X6	Y6	Z6	X7	Y7	Z7	X8	Y8	Z8	X9	Y9	Z9	X10	Y10	Z10	X11	Y11	Z11	X12	Y12	Z12	X13	Y13	Z13	X14	Y14	Z14	X15	Y15	Z15	X16	Y16	Z16	X17	Y17	Z17	X18	Y18	Z18	X19	Y19	Z19	X20	Y20	Z20	X21	Y21	Z21	X22	Y22	Z22	X23	Y23	Z23	X24	Y24	Z24	X25	Y25	Z25	X26	Y26	Z26	X27	Y27	Z27	X28	Y28	Z28	X29	Y29	Z29	X30	Y30	Z30	X31	Y31	Z31	X32	Y32	Z32	X33	Y33	Z33	X34	Y34	Z34	X35	Y35	Z35	X36	Y36	Z36	X37	Y37	Z37	X38	Y38	Z38	X39	Y39	Z39	X40	Y40	Z40	X41	Y41	Z41	X42	Y42	Z42	X43	Y43	Z43	X44	Y44	Z44	X45	Y45	Z45	X46	Y46	Z46	X47	Y47	Z47	X48	Y48	Z48	X49	Y49	Z49	X50	Y50	Z50	X51	Y51	Z51	X52	Y52	Z52	
751	3.7550	715.695644	1500.489465	-78.458363	707.439531	1500.527402	-405.716968	654.740061	1602.761530	-245.501366	673.346938	1431.661075	-239.478279	640.104949	1223.565731	7.363774	771.874945	961.181484	-40.054508	678.323741	1222.451331	-476.502876	769.776652	938.083174	-416.233109	141.048683	1311.298246	-223.385516	315.973209	1317.672049	-414.521707	305.997452	1354.115959	-49.625635	329.520237	1247.251932	-369.333403	339.294490	1281.906698	-92.962172	169.449061	1365.606292	-188.951004	174.946382	1353.813627	-273.749832	273.644090	1263.978001	-29.910905	232.618598	1187.962997	-413.036169	378.813285	1146.057865	-13.306947	461.649740	1113.691355	-18.170450	517.821322	1049.405919	-24.172830	481.142143	1142.880597	-32.581087	611.772688	955.469210	-56.534511	610.013689	940.519772	-185.941195	512.070586	821.292875	-33.547780	470.873527	743.395216	-46.394350	396.746037	695.817763	-43.629795	492.521891	725.698041	-72.677309	301.277185	598.443587	-58.729828	323.595103	600.632817	-147.560155	221.272938	583.127590	-94.479602	492.328284	433.527512	-115.970178	384.952505	475.114127	-39.906609	406.285484	478.479990	-153.873588	273.369420	1035.713236	-427.026742	314.712705	959.506144	-432.271997	350.014632	968.469594	-430.592951	313.659374	870.740911	-424.204054	357.134748	749.708217	-408.068816	359.431822	735.436662	-286.761775	258.293312	611.374063	-435.120833	239.625356	530.184187	-419.859851	178.443374	463.011884	-416.157803	269.653338	515.905271	-399.118950	112.419646	355.498594	-401.495612	150.393776	361.916162	-311.568913	41.061379	356.999874	-355.182563	263.177549	139.305646	-349.338030	197.217671	200.703349	-311.711106	161.733643	203.966710	-423.440644	-211.549086	948.029006	-227.890973	-4.316070	85.057117	-432.811982	-8.648419	82.025447	-32.436175	
752	3.7600	714.936225	1500.376097	-78.011386	706.890821	1500.702410	-405.000794	654.459117	1603.118749	-244.827721	672.221346	1431.707058	-238.789107	637.852630	1223.809623	8.398525	770.734547	962.034079	-39.949903	675.691603	1222.921756	-476.459599	769.002574	939.061118	-416.111451	141.607579	1313.554040	-220.919060	313.527713	1320.269875	-412.864040	305.220947	1356.159597	-48.408065	328.092615	1249.433557	-369.445297	338.491536	1282.937047	-92.400828	171.893642	1367.033440	-186.958914	174.501461	1356.291884	-272.010343	273.309133	1264.231762	-29.379878	231.833987	1190.548053	-412.149007	376.392939	1143.792438	-12.746606	458.731830	1110.210271	-18.012380	514.336251	1045.343784	-24.350953	478.730455	1139.513855	-31.750024	607.090119	950.770247	-56.622765	604.588602	936.556190	-186.576958	509.821412	814.737148	-34.164253	469.766924	736.174614	-47.121188	397.052136	686.932760	-43.869839	492.076399	718.750049	-73.220976	303.407763	587.737409	-59.019310	325.226389	590.281938	-147.958269	223.143687	570.039320	-94.333995	499.391834	430.603891	-115.309178	390.218647	467.856607	-38.979266	411.451651	471.925972	-152.918520	275.917469	1038.556947	-427.089760	318.872720	963.421281	-432.823114	353.920734	973.030530	-431.131939	319.753624	874.562875	-425.441313	365.171255	753.994200	-410.635537	368.039024	739.486982	-289.185023	263.679016	616.859861	-436.820811	243.172932	536.120556	-421.282443	180.553320	470.375631	-417.313860	272.829280	521.275851	-400.292991	112.343150	364.081625	-402.369046	148.225717	367.409393	-312.882247	41.260159	368.127581	-355.376612	254.842719	142.214768	-349.071159	191.786614	206.754314	-312.627661	156.043142	210.450881	-423.190725	-211.538462	948.144865	-227.656597	-4.337173	85.106849	-432.818824	-8.669071	82.049749	-32.419315	
753	3.7650	714.103858	1500.110304	-77.267071	706.393303	1500.862506	-404.563141	654.148163	1603.272096	-244.200880	671.197424	1431.605303	-238.250658	635.663568	1223.949812	9.586730	769.446646	962.528482	-39.318119	672.579792	1223.330918	-476.835935	768.198661	940.153871	-416.198590	141.598649	1315.801715	-219.566489	311.263201	1322.920993	-412.004321	304.816509	1357.707892	-47.236777	326.842621	1251.375506	-369.570587	336.635810	1284.857422	-88.896645	172.847992	1368.999257	-185.591008	174.407954	1358.679199	-269.691182	272.857269	1263.594883	-28.762416	231.182876	1192.870978	-411.472561	373.861022	1140.582278	-12.365034	455.759810	1105.934960	-17.643617	510.273694	1040.222537	-24.508802	476.075329	1134.521379	-31.597934	602.158873	944.793979	-57.314951	598.765753	930.834378	-186.780932	507.185412	807.098976	-34.491417	469.053118	727.450906	-47.045946	397.045732	676.951510	-43.948333	491.256080	710.743573	-73.608070	305.140486	576.119041	-59.408094	327.548520	578.622952	-148.533906	224.848602	556.174093	-94.207629	505.855456	427.056496	-114.600065	394.824553	460.002352	-37.763024	416.312318	464.204085	-151.940872	278.429987	1041.490331	-427.323375	322.998768	967.234185	-433.387341	357.836321	977.649368	-431.710724	325.774320	878.422734	-426.601134	373.102037	758.480925	-412.937073	376.747918	743.745887	-291.641940	269.203621	621.792597	-438.199170	246.953222	541.773932	-422.763942	182.974020	477.355140	-418.501997	276.197148	526.410639	-401.300992	112.659749	372.515684	-403.246815	146.491297	373.132116	-314.221363	41.795689	379.214076	-355.893339	246.792606	145.526665	-348.857661	186.337930	212.884899	-313.122027	150.758128	217.238759	-423.041704	-211.564638	948.181378	-227.350132	-4.367142	85.228001	-432.744597	-8.672553	82.031991	-32.367360	
754	3.7700	713.299102	1499.569880	-76.335410	705.950064	1500.908066	-404.353860	653.838347	1603.292896	-243.565061	670.328021	1431.265631	-237.832048	633.511461	1224.018295	10.957487	767.998141	963.244037	-38.959809	669.152808	1223.696186	-477.550199	767.130247	941.258330	-416.361238	141.370640	1316.613893	-217.909266	309.157075	1325.309380	-411.079942	304.644722	1358.743919	-46.110655	325.676816	1253.013442	-369.701189	336.427955	1283.462881	-88.370543	172.618290	1370.616476	-183.034933	174.213461	1360.623999	-268.067605	272.136445	1262.280786	-28.105703	230.730713	1194.936907	-410.974691	371.746116	1136.833877	-11.093748	452.607693	1100.843071	-17.067434	506.066715	1034.387416	-24.509379	473.425579	1129.135958	-30.217478	596.766903	937.812893	-58.103143	592.390666	924.870756	-187.251096	504.147048	798.454022	-34.387850	467.621454	717.974060	-47.195461	396.694262	665.913078	-44.119601	489.602130	701.973675	-73.878579	306.575998	563.757141	-59.809181	328.104984	566.604203	-149.200713	226.079597	541.523727	-94.169851	511.738112	422.633619	-113.690362	399.365902	451.407375	-37.075082	420.929255	455.924688	-151.255799	281.029616	1044.358950	-427.445195	327.038710	971.112772	-433.957292	361.619543	982.113095	-432.395968	331.630867	882.330739	-427.846484	380.870046	762.781990	-415.376021	385.129826	747.976711	-294.010871	274.568461	626.631278	-440.013849	250.766735	547.039690	-424.284523	185.582439	483.878065	-419.666809	279.305724	530.953250	-401.296295	113.200603	380.757267	-404.113302	145.214027	379.076249	-315.584547	42.800749	390.316470	-356.461787	238.985991	149.248969	-348.564307	180.853424	219.065304	-313.153575	145.865672	224.236674	-422.861376	-211.618189	948.132724	-227.012297	-4.382565	85.262183	-432.717456	-8.687239	81.966890	-32.374511	
755	3.7750	712.714421	1499.166786	-75.342195	705.476511	1500.855572	-404.357128	653.570758	1603.177857	-242.877395	669.600531	1430.562115	-237.501333	631.410811	1223.996564	12.396284	766.363782	963.696426	-38.891234	665.420304	1224.018007	-478.521843	765.798372	942.386990	-416.463695	142.275715	1317.726823	-216.732938	307.284718	1327.311434	-410.111534	304.711550	1359.058360	-44.963058	324.710168	1254.326924	-369.711483	336.704142	1281.169550	-88.720393	172.389128	1371.586782	-180.305387	173.845792	1362.169459	-265.833256	271.232690	1260.432878	-27.410853	230.417552	1196.877141	-410.728877	369.205977	1132.405544	-10.409794	449.349979	1095.094908	-16.469139	501.568062	1027.831452	-24.540180	470.844626	1123.162911	-28.862166	590.475806	929.856337	-58.625807	585.859077	917.969116	-187.583383	500.780411	788.747984	-34.555816	466.021008	707.639740	-47.599093	395.916328	654.135127	-44.452822	487.946192	692.358337	-74.430564	307.480689	550.955567	-60.353862	328.465376	553.838994	-149.985525	227.030920	526.355578	-94.201903	517.100160	417.344512	-113.006517	404.032051	442.354634	-36.478517	425.159222	447.383098	-150.861010	283.703895	1047.135851	-427.543538	331.045198	974.818795	-434.406697	365.359005	986.488851	-433.030313	337.297910	886.164997	-429.100264	388.323493	767.161037	-417.954010	393.191557	752.158161	-296.464038	279.631666	631.069550	-441.513874	254.443533	552.083650	-425.690502	188.180325	490.155874	-420.844301	282.620047	535.627043	-402.399502	113.764468	388.916056	-404.985245	144.417416	385.233713	-316.970086	43.912115	401.244964	-357.090642	231.621588	153.633370	-348.227732	175.296633	225.254831	-312.670171	141.225580	231.430309	-422.711287	-211.665239	947.986603	-226.656178	-4.410184	85.170659	-432.692804	-8.920547	82.043333	-32.253456	
756	3.7800	712.267653	1498.443668	-74.228762	705.087796	1500.814969	-404.615337	653.253140	1603.219792	-241.357849	669.175794	1429.736858	-237.186070	629.427759	1223.942826	13.823411	764.855769	964.284148	-38.202958	661.606040	1224.200748	-479.723681	764.503631	943.490757	-416.890515	142.718954	1318.241095	-215.680641	305.725654	1328.869510	-409.158428	304.951333	1358.645465	-43.946429	323.764499	1255.233339	-369.690254	336.300535	1280.393554	-87.844069	172.312495	1372.048470	-177.546214	173.522895	1362.668444	-263.657699	270.263941	1258.041651	-26.631670	230.199316	1198.567368	-410.565768	366.579548	1127.477596	-9.778351	445.996036	1088.700458	-15.863773	496.984227	1020.586313	-24.409408	468.123235	1116.712639	-27.562706	583.386334	920.987567	-58.648962	579.443362	910.129626	-187.170705	496.899588	778.436204	-34.527885	463.681336	696.758145	-48.036592	394.631841	641.731813	-45.111041	485.768989	682.048838	-75.157445	307.786010	537.725524	-61.248601	328.709737	540.793881	-150.916338	227.746266	510.927942	-94.585136	521.849036	411.328627	-112.437702	408.036088	433.052694	-36.425592	428.915779	438.419995	-150.749004	286.401539	1049.914491	-427.565043	334.903859	978.524900	-434.853558	368.968175	990.721252	-433.635523	342.771712	889.975670	-430.454516	395.311703	771.181572	-420.749640	400.853384	756.362150	-298.750319	284.619135	635.605277	-443.713849	257.891555	556.983885	-427.237633	190.572053	496.152276	-421.989568	285.733635	540.240911	-403.673087	114.146656	397.127576	-405.855224	144.124975	391.596426	-318.376264	44.861881	411.964513	-357.648747	224.780964	158.685147	-347.830955	169.645329	231.477244	-311.646738	136.898053	238.901961	-422.615636	-211.728180	947.768355	-226.341514	-4.422097	85.063022	-432.626943	-8.949506	81.829792	-32.162765	
